<svg width="48" height="48" viewBox="0 0 48 48" fill="none" xmlns="http://www.w3.org/2000/svg">
<path fill-rule="evenodd" clip-rule="evenodd" d="M31 24C31 27.866 27.866 31 24 31C20.134 31 17 27.866 17 24C17 20.134 20.134 17 24 17C27.866 17 31 20.134 31 24ZM33 24C33 28.9706 28.9706 33 24 33C19.0294 33 15 28.9706 15 24C15 19.0294 19.0294 15 24 15C28.9706 15 33 19.0294 33 24ZM25.7071 20.2929C25.3166 19.9024 24.6834 19.9024 24.2929 20.2929C23.9024 20.6834 23.9024 21.3166 24.2929 21.7071L25.5858 23H20C19.4477 23 19 23.4477 19 24C19 24.5523 19.4477 25 20 25H25.5858L24.2929 26.2929C23.9024 26.6834 23.9024 27.3166 24.2929 27.7071C24.6834 28.0976 25.3166 28.0976 25.7071 27.7071L28.7071 24.7071C29.0976 24.3166 29.0976 23.6834 28.7071 23.2929L25.7071 20.2929Z" fill="#222222"/>
</svg>
